# xmcd
#
# Track frame offsets:
#	150
#	15753
#	28382
#	41467
#	55502
#	71090
#	89310
#	103097
#	119583
#	130813
#	142425
#	159714
#	182486
#	199220
#	215684
#	233115
#	251137
#	265046
#	282188
#	297172
#
# Disc length: 4127 seconds
#
# Revision: 1
# Processed by: cddbd v1.5.2PL0 Copyright (c) Steve Scherf et al.
# Submitted via: audiograbber 1.83.01
#
DISCID=30101d14
DTITLE=Eddie Low - This Could Be The Last Time
DYEAR=1900
DGENRE=
TTITLE0=The Shame
TTITLE1=This Flower
TTITLE2=Five Little Fingers
TTITLE3=Love Without End
TTITLE4=A Stranger In My Place
TTITLE5=We Didn't Say Goodbye
TTITLE6=My Last Christmas
TTITLE7=Hallelujah
TTITLE8=Easy Lovin'
TTITLE9=Manhattan Kansas
TTITLE10=26 Hona Road
TTITLE11=Whakria Mai - How Great Thou Art
TTITLE12=Daylight
TTITLE13=Should I Fall Behind
TTITLE14=Angelina
TTITLE15=1959
TTITLE16=Standing In The Middle
TTITLE17=The Last Time
TTITLE18=You Are My Sunshine
TTITLE19=Fall In Love
EXTD=
EXTT0=
EXTT1=
EXTT2=
EXTT3=
EXTT4=
EXTT5=
EXTT6=
EXTT7=
EXTT8=
EXTT9=
EXTT10=
EXTT11=
EXTT12=
EXTT13=
EXTT14=
EXTT15=
EXTT16=
EXTT17=
EXTT18=
EXTT19=
PLAYORDER=
